<svg width="22" height="22" viewBox="0 0 22 22" fill="none" xmlns="http://www.w3.org/2000/svg">
<path d="M11 2C9.21997 2 7.47991 2.52784 5.99987 3.51677C4.51983 4.50571 3.36628 5.91131 2.68509 7.55585C2.0039 9.20038 1.82567 11.01 2.17294 12.7558C2.5202 14.5016 3.37737 16.1053 4.63604 17.364C5.89471 18.6226 7.49836 19.4798 9.24419 19.8271C10.99 20.1743 12.7996 19.9961 14.4442 19.3149C16.0887 18.6337 17.4943 17.4802 18.4832 16.0001C19.4722 14.5201 20 12.78 20 11C19.9975 8.61382 19.0485 6.3261 17.3612 4.63882C15.6739 2.95154 13.3862 2.00252 11 2ZM11 18.6154C9.49382 18.6154 8.02146 18.1687 6.76912 17.332C5.51678 16.4952 4.5407 15.3058 3.96431 13.9143C3.38792 12.5227 3.23711 10.9916 3.53095 9.51431C3.82479 8.03707 4.55008 6.68014 5.61511 5.61511C6.68014 4.55008 8.03708 3.82478 9.51431 3.53094C10.9916 3.2371 12.5228 3.38791 13.9143 3.9643C15.3058 4.54069 16.4952 5.51677 17.332 6.76912C18.1688 8.02146 18.6154 9.49382 18.6154 11C18.6131 13.019 17.81 14.9547 16.3824 16.3824C14.9547 17.81 13.019 18.6131 11 18.6154ZM10.3077 11.6923V6.84615C10.3077 6.66254 10.3806 6.48645 10.5105 6.35662C10.6403 6.22678 10.8164 6.15385 11 6.15385C11.1836 6.15385 11.3597 6.22678 11.4895 6.35662C11.6194 6.48645 11.6923 6.66254 11.6923 6.84615V11.6923C11.6923 11.8759 11.6194 12.052 11.4895 12.1818C11.3597 12.3117 11.1836 12.3846 11 12.3846C10.8164 12.3846 10.6403 12.3117 10.5105 12.1818C10.3806 12.052 10.3077 11.8759 10.3077 11.6923ZM12.0385 14.8077C12.0385 15.0131 11.9776 15.2139 11.8635 15.3846C11.7493 15.5554 11.5872 15.6885 11.3974 15.7671C11.2076 15.8457 10.9988 15.8663 10.7974 15.8262C10.596 15.7861 10.4109 15.6872 10.2657 15.542C10.1205 15.3968 10.0216 15.2117 9.98149 15.0103C9.94142 14.8088 9.96199 14.6 10.0406 14.4103C10.1192 14.2205 10.2523 14.0583 10.4231 13.9442C10.5938 13.8301 10.7946 13.7692 11 13.7692C11.2754 13.7692 11.5396 13.8786 11.7343 14.0734C11.9291 14.2681 12.0385 14.5323 12.0385 14.8077Z" fill="#FF6650" style="fill:#FF6650;fill:color(display-p3 1.0000 0.4000 0.3137);fill-opacity:1;"/>
</svg>
