<svg width="24" height="24" viewBox="0 0 24 24" fill="none" xmlns="http://www.w3.org/2000/svg">
<path d="M9.577 10.9974C9.68227 10.9366 9.76968 10.8492 9.83044 10.7439C9.8912 10.6387 9.92318 10.5193 9.92315 10.3978V4.16807C9.92253 4.05771 9.89553 3.9491 9.8444 3.8513C9.79327 3.75349 9.7195 3.66933 9.62922 3.60583C9.53895 3.54233 9.4348 3.50133 9.32546 3.48625C9.21612 3.47117 9.10475 3.48244 9.00066 3.51914C6.97998 4.23418 5.28067 5.64644 4.20821 7.50205C3.13575 9.35765 2.76047 11.5349 3.14984 13.6424C3.17002 13.7514 3.21608 13.8539 3.28415 13.9414C3.35222 14.0289 3.4403 14.0987 3.54099 14.1451C3.63173 14.1875 3.73072 14.2094 3.83089 14.2091C3.9524 14.2092 4.07178 14.1772 4.17704 14.1165L9.577 10.9974ZM8.53855 5.21673V9.99802L4.39512 12.3887C4.38473 12.258 4.38473 12.1265 4.38473 11.9984C4.38596 10.5953 4.7744 9.21979 5.5073 8.02324C6.24019 6.82669 7.2891 5.85554 8.53855 5.21673ZM21 11.9984C21.0007 13.9739 20.3512 15.8947 19.1517 17.4644C17.9522 19.0342 16.2695 20.1657 14.363 20.6843C12.4566 21.203 10.4324 21.08 8.60278 20.3343C6.77318 19.5886 5.23985 18.2617 4.23935 16.5582C4.19271 16.4795 4.16213 16.3924 4.14937 16.3018C4.13662 16.2113 4.14194 16.1191 4.16503 16.0306C4.18813 15.9421 4.22854 15.859 4.28392 15.7862C4.33931 15.7134 4.40857 15.6523 4.48771 15.6065L11.3078 11.6376V3.69219C11.3078 3.50861 11.3807 3.33255 11.5105 3.20274C11.6404 3.07293 11.8165 3 12.0001 3C13.5706 3.0008 15.1136 3.41231 16.4759 4.19368C17.8383 4.97505 18.9725 6.0991 19.766 7.45423C19.7755 7.46807 19.7841 7.48192 19.7928 7.49662C19.8014 7.51133 19.8101 7.52864 19.8179 7.54421C20.5944 8.90018 21.002 10.4359 21 11.9984Z" fill="#74A0F8" style="fill:#74A0F8;fill:color(display-p3 0.4549 0.6275 0.9725);fill-opacity:1;"/>
</svg>
