<svg width="24" height="24" viewBox="0 0 24 24" fill="none" xmlns="http://www.w3.org/2000/svg">
<path d="M9.57823 10.9988C9.68352 10.938 9.77094 10.8506 9.83172 10.7453C9.89249 10.64 9.92447 10.5206 9.92445 10.399V4.16827C9.92383 4.05789 9.89682 3.94927 9.84568 3.85144C9.79454 3.75362 9.72075 3.66945 9.63046 3.60593C9.54017 3.54242 9.436 3.50141 9.32664 3.48633C9.21728 3.47125 9.1059 3.48253 9.00178 3.51923C6.98073 4.2344 5.2811 5.6469 4.20844 7.50283C3.13577 9.35876 2.76042 11.5364 3.14987 13.6442C3.17005 13.7532 3.21612 13.8558 3.2842 13.9433C3.35228 14.0308 3.44038 14.1007 3.54109 14.147C3.63185 14.1895 3.73086 14.2113 3.83104 14.2111C3.95258 14.2111 4.07198 14.1792 4.17726 14.1185L9.57823 10.9988ZM8.53958 5.21712V9.99923L4.39538 12.3903C4.38499 12.2596 4.38499 12.1281 4.38499 12C4.38622 10.5967 4.77474 9.22087 5.50776 8.02411C6.24079 6.82735 7.2899 5.85604 8.53958 5.21712ZM12.0017 3C11.8181 3 11.642 3.07294 11.5121 3.20277C11.3823 3.33261 11.3093 3.5087 11.3093 3.69231V11.6383L4.48799 15.6112C4.40883 15.6571 4.33956 15.7182 4.28416 15.791C4.22876 15.8638 4.18835 15.9469 4.16525 16.0354C4.14215 16.1239 4.13683 16.2162 4.14959 16.3067C4.16234 16.3973 4.19293 16.4845 4.23958 16.5632C5.03908 17.9221 6.1816 19.0472 7.55274 19.8258C8.92389 20.6044 10.4756 21.0093 12.0524 20.9998C13.6292 20.9904 15.1759 20.5669 16.5376 19.7719C17.8993 18.9769 19.0283 17.8382 19.8114 16.4698C20.5945 15.1013 21.0044 13.5513 21 11.9747C20.9955 10.3981 20.5769 8.85034 19.7861 7.48636C18.9953 6.12237 17.86 4.99002 16.4938 4.20267C15.1277 3.41532 13.5786 3.00059 12.0017 3ZM12.0017 19.6154C10.793 19.6121 9.60213 19.3228 8.52665 18.7711C7.45117 18.2194 6.52161 17.421 5.814 16.4412L12.3506 12.6335C12.4557 12.5728 12.5431 12.4855 12.6038 12.3804C12.6646 12.2753 12.6966 12.156 12.6968 12.0346V4.41577C14.6498 4.59293 16.4592 5.5164 17.7483 6.99393C19.0374 8.47145 19.7069 10.3892 19.6174 12.3478C19.5278 14.3064 18.6861 16.1551 17.2675 17.5088C15.8489 18.8626 13.9628 19.6171 12.0017 19.6154Z" fill="#757575" style="fill:#757575;fill:color(display-p3 0.4588 0.4588 0.4588);fill-opacity:1;"/>
</svg>
