<svg width="18" height="18" viewBox="0 0 18 18" fill="none" xmlns="http://www.w3.org/2000/svg">
<path d="M14.8402 11.1461L9.38589 6.14663C9.33523 6.10014 9.27508 6.06327 9.20887 6.03811C9.14265 6.01295 9.07168 6 9 6C8.92832 6 8.85735 6.01295 8.79113 6.03811C8.72492 6.06327 8.66477 6.10014 8.61411 6.14663L3.15984 11.1461C3.0575 11.2399 3 11.3671 3 11.4998C3 11.6324 3.0575 11.7597 3.15984 11.8535C3.26218 11.9473 3.40099 12 3.54573 12C3.69047 12 3.82928 11.9473 3.93162 11.8535L9 7.20713L14.0684 11.8535C14.1191 11.8999 14.1792 11.9368 14.2454 11.9619C14.3116 11.9871 14.3826 12 14.4543 12C14.5259 12 14.5969 11.9871 14.6631 11.9619C14.7293 11.9368 14.7895 11.8999 14.8402 11.8535C14.8908 11.807 14.931 11.7519 14.9585 11.6912C14.9859 11.6305 15 11.5655 15 11.4998C15 11.4341 14.9859 11.369 14.9585 11.3084C14.931 11.2477 14.8908 11.1925 14.8402 11.1461Z" fill="#757575" style="fill:#757575;fill:color(display-p3 0.4588 0.4588 0.4588);fill-opacity:1;"/>
</svg>
