<svg width="18" height="18" viewBox="0 0 18 18" fill="none" xmlns="http://www.w3.org/2000/svg">
<path d="M11.1461 14.8402L6.14663 9.38589C6.10014 9.33523 6.06327 9.27508 6.03811 9.20887C6.01295 9.14265 6 9.07168 6 9C6 8.92832 6.01295 8.85735 6.03811 8.79113C6.06327 8.72492 6.10014 8.66477 6.14663 8.61411L11.1461 3.15984C11.2399 3.0575 11.3671 3 11.4998 3C11.6324 3 11.7597 3.0575 11.8535 3.15984C11.9473 3.26218 12 3.40099 12 3.54573C12 3.69047 11.9473 3.82928 11.8535 3.93162L7.20713 9L11.8535 14.0684C11.8999 14.1191 11.9368 14.1792 11.9619 14.2454C11.9871 14.3116 12 14.3826 12 14.4543C12 14.5259 11.9871 14.5969 11.9619 14.6631C11.9368 14.7293 11.8999 14.7895 11.8535 14.8402C11.807 14.8908 11.7519 14.931 11.6912 14.9585C11.6305 14.9859 11.5655 15 11.4998 15C11.4341 15 11.369 14.9859 11.3084 14.9585C11.2477 14.931 11.1925 14.8908 11.1461 14.8402Z" fill="#757575" style="fill:#757575;fill:color(display-p3 0.4588 0.4588 0.4588);fill-opacity:1;"/>
</svg>
