<svg width="24" height="24" viewBox="0 0 24 24" fill="none" xmlns="http://www.w3.org/2000/svg">
<path d="M19.7869 9.13858L12.5145 15.8045C12.447 15.8665 12.3668 15.9156 12.2785 15.9492C12.1902 15.9827 12.0956 16 12 16C11.9044 16 11.8098 15.9827 11.7215 15.9492C11.6332 15.9156 11.553 15.8665 11.4855 15.8045L4.21312 9.13858C4.07666 9.0135 4 8.84385 4 8.66696C4 8.49007 4.07666 8.32043 4.21312 8.19535C4.34958 8.07027 4.53466 8 4.72764 8C4.92062 8 5.1057 8.07027 5.24216 8.19535L12 14.3905L18.7578 8.19535C18.8254 8.13342 18.9056 8.08429 18.9939 8.05077C19.0822 8.01725 19.1768 8 19.2724 8C19.3679 8 19.4625 8.01725 19.5508 8.05077C19.6391 8.08429 19.7193 8.13342 19.7869 8.19535C19.8544 8.25728 19.908 8.33081 19.9446 8.41173C19.9812 8.49265 20 8.57938 20 8.66696C20 8.75455 19.9812 8.84128 19.9446 8.9222C19.908 9.00312 19.8544 9.07664 19.7869 9.13858Z" fill="#3F3F3F" style="fill:#3F3F3F;fill:color(display-p3 0.2471 0.2471 0.2471);fill-opacity:1;"/>
</svg>
