<svg width="24" height="24" viewBox="0 0 24 24" fill="none" xmlns="http://www.w3.org/2000/svg">
<path d="M19.7869 14.8614L12.5145 8.1955C12.447 8.13352 12.3668 8.08436 12.2785 8.05081C12.1902 8.01727 12.0956 8 12 8C11.9044 8 11.8098 8.01727 11.7215 8.05081C11.6332 8.08436 11.553 8.13352 11.4855 8.1955L4.21312 14.8614C4.07666 14.9865 4 15.1561 4 15.333C4 15.5099 4.07666 15.6796 4.21312 15.8047C4.34958 15.9297 4.53466 16 4.72764 16C4.92062 16 5.1057 15.9297 5.24216 15.8047L12 9.60951L18.7578 15.8047C18.8254 15.8666 18.9056 15.9157 18.9939 15.9492C19.0822 15.9827 19.1768 16 19.2724 16C19.3679 16 19.4625 15.9827 19.5508 15.9492C19.6391 15.9157 19.7193 15.8666 19.7869 15.8047C19.8544 15.7427 19.908 15.6692 19.9446 15.5883C19.9812 15.5074 20 15.4206 20 15.333C20 15.2455 19.9812 15.1587 19.9446 15.0778C19.908 14.9969 19.8544 14.9234 19.7869 14.8614Z" fill="#3F3F3F" style="fill:#3F3F3F;fill:color(display-p3 0.2471 0.2471 0.2471);fill-opacity:1;"/>
</svg>
