<svg width="18" height="18" viewBox="0 0 18 18" fill="none" xmlns="http://www.w3.org/2000/svg">
<path d="M6.85393 14.8402L11.8534 9.38589C11.8999 9.33523 11.9367 9.27508 11.9619 9.20887C11.9871 9.14265 12 9.07168 12 9C12 8.92832 11.9871 8.85735 11.9619 8.79113C11.9367 8.72492 11.8999 8.66477 11.8534 8.61411L6.85393 3.15984C6.76012 3.0575 6.63289 3 6.50022 3C6.36755 3 6.24032 3.0575 6.14651 3.15984C6.0527 3.26218 6 3.40099 6 3.54573C6 3.69047 6.0527 3.82928 6.14651 3.93162L10.7929 9L6.14651 14.0684C6.10006 14.1191 6.06322 14.1792 6.03808 14.2454C6.01294 14.3116 6 14.3826 6 14.4543C6 14.5259 6.01294 14.5969 6.03808 14.6631C6.06322 14.7293 6.10006 14.7895 6.14651 14.8402C6.19296 14.8908 6.24811 14.931 6.3088 14.9585C6.36948 14.9859 6.43453 15 6.50022 15C6.56591 15 6.63096 14.9859 6.69165 14.9585C6.75234 14.931 6.80748 14.8908 6.85393 14.8402Z" fill="white" style="fill:white;fill-opacity:1;"/>
</svg>
