<svg width="18" height="18" viewBox="0 0 18 18" fill="none" xmlns="http://www.w3.org/2000/svg">
<path d="M14.8402 6.85393L9.38589 11.8534C9.33523 11.8999 9.27508 11.9367 9.20887 11.9619C9.14265 11.9871 9.07168 12 9 12C8.92832 12 8.85735 11.9871 8.79113 11.9619C8.72492 11.9367 8.66477 11.8999 8.61411 11.8534L3.15984 6.85393C3.0575 6.76012 3 6.63289 3 6.50022C3 6.36755 3.0575 6.24032 3.15984 6.14651C3.26218 6.0527 3.40099 6 3.54573 6C3.69047 6 3.82928 6.0527 3.93162 6.14651L9 10.7929L14.0684 6.14651C14.1191 6.10006 14.1792 6.06322 14.2454 6.03808C14.3116 6.01294 14.3826 6 14.4543 6C14.5259 6 14.5969 6.01294 14.6631 6.03808C14.7293 6.06322 14.7895 6.10006 14.8402 6.14651C14.8908 6.19296 14.931 6.24811 14.9585 6.3088C14.9859 6.36948 15 6.43453 15 6.50022C15 6.56591 14.9859 6.63096 14.9585 6.69165C14.931 6.75234 14.8908 6.80748 14.8402 6.85393Z" fill="#757575" style="fill:#757575;fill:color(display-p3 0.4588 0.4588 0.4588);fill-opacity:1;"/>
</svg>
