<svg width="24" height="24" viewBox="0 0 24 24" fill="none" xmlns="http://www.w3.org/2000/svg">
<path d="M9.13858 19.7869L15.8045 12.5145C15.8665 12.447 15.9156 12.3668 15.9492 12.2785C15.9827 12.1902 16 12.0956 16 12C16 11.9044 15.9827 11.8098 15.9492 11.7215C15.9156 11.6332 15.8665 11.553 15.8045 11.4855L9.13858 4.21312C9.0135 4.07666 8.84385 4 8.66696 4C8.49007 4 8.32043 4.07666 8.19535 4.21312C8.07027 4.34958 8 4.53466 8 4.72764C8 4.92062 8.07027 5.1057 8.19535 5.24216L14.3905 12L8.19535 18.7578C8.13341 18.8254 8.08429 18.9056 8.05077 18.9939C8.01725 19.0822 8 19.1768 8 19.2724C8 19.3679 8.01725 19.4625 8.05077 19.5508C8.08429 19.6391 8.13341 19.7193 8.19535 19.7869C8.25728 19.8544 8.33081 19.908 8.41173 19.9446C8.49265 19.9812 8.57938 20 8.66696 20C8.75455 20 8.84128 19.9812 8.9222 19.9446C9.00312 19.908 9.07664 19.8544 9.13858 19.7869Z" fill="#3F3F3F" style="fill:#3F3F3F;fill:color(display-p3 0.2471 0.2471 0.2471);fill-opacity:1;"/>
</svg>
