<svg width="24" height="24" viewBox="0 0 24 24" fill="none" xmlns="http://www.w3.org/2000/svg">
<path d="M14.8614 19.7869L8.1955 12.5145C8.13352 12.447 8.08436 12.3668 8.05081 12.2785C8.01727 12.1902 8 12.0956 8 12C8 11.9044 8.01727 11.8098 8.05081 11.7215C8.08436 11.6332 8.13352 11.553 8.1955 11.4855L14.8614 4.21312C14.9865 4.07666 15.1561 4 15.333 4C15.5099 4 15.6796 4.07666 15.8047 4.21312C15.9297 4.34958 16 4.53466 16 4.72764C16 4.92062 15.9297 5.1057 15.8047 5.24216L9.60951 12L15.8047 18.7578C15.8666 18.8254 15.9157 18.9056 15.9492 18.9939C15.9827 19.0822 16 19.1768 16 19.2724C16 19.3679 15.9827 19.4625 15.9492 19.5508C15.9157 19.6391 15.8666 19.7193 15.8047 19.7869C15.7427 19.8544 15.6692 19.908 15.5883 19.9446C15.5074 19.9812 15.4206 20 15.333 20C15.2455 20 15.1587 19.9812 15.0778 19.9446C14.9969 19.908 14.9234 19.8544 14.8614 19.7869Z" fill="#3F3F3F" style="fill:#3F3F3F;fill:color(display-p3 0.2471 0.2471 0.2471);fill-opacity:1;"/>
</svg>
