<svg width="22" height="22" viewBox="0 0 22 22" fill="none" xmlns="http://www.w3.org/2000/svg">
<g clip-path="url(#clip0_902_94820)">
<path d="M16.9231 11C16.9231 7.72878 14.2712 5.07692 11 5.07692C7.72878 5.07692 5.07692 7.72878 5.07692 11C5.07692 14.2712 7.72878 16.9231 11 16.9231C14.2712 16.9231 16.9231 14.2712 16.9231 11ZM18 11C18 14.866 14.866 18 11 18C7.13401 18 4 14.866 4 11C4 7.13401 7.13401 4 11 4C14.866 4 18 7.13401 18 11Z" fill="#74A0F8" style="fill:#74A0F8;fill:color(display-p3 0.4549 0.6275 0.9725);fill-opacity:1;"/>
<path d="M10.5 7.94444C10.5 7.69898 10.699 7.5 10.9444 7.5C11.1899 7.5 11.3889 7.69898 11.3889 7.94444V10.6111H14.0556C14.301 10.6111 14.5 10.8101 14.5 11.0556C14.5 11.301 14.301 11.5 14.0556 11.5H10.9444C10.699 11.5 10.5 11.301 10.5 11.0556V7.94444Z" fill="#74A0F8" style="fill:#74A0F8;fill:color(display-p3 0.4549 0.6275 0.9725);fill-opacity:1;"/>
</g>
<defs>
<clipPath id="clip0_902_94820">
<rect width="18" height="18" fill="white" style="fill:white;fill-opacity:1;" transform="translate(2 2)"/>
</clipPath>
</defs>
</svg>
