<svg width="22" height="22" viewBox="0 0 22 22" fill="none" xmlns="http://www.w3.org/2000/svg">
<g clip-path="url(#clip0_884_52057)">
<path d="M16.8051 4.20503C17.0785 3.93166 17.5216 3.93166 17.795 4.20503C18.0683 4.4784 18.0683 4.92151 17.795 5.19488L5.19488 17.795C4.92151 18.0683 4.4784 18.0683 4.20503 17.795C3.93166 17.5216 3.93166 17.0785 4.20503 16.8051L16.8051 4.20503Z" fill="#3F3F3F" style="fill:#3F3F3F;fill:color(display-p3 0.2471 0.2471 0.2471);fill-opacity:1;"/>
<path d="M4.20503 4.20503C4.4784 3.93166 4.92151 3.93166 5.19488 4.20503L17.795 16.8051C18.0683 17.0785 18.0683 17.5216 17.795 17.795C17.5216 18.0683 17.0785 18.0683 16.8051 17.795L4.20503 5.19488C3.93166 4.92151 3.93166 4.4784 4.20503 4.20503Z" fill="#3F3F3F" style="fill:#3F3F3F;fill:color(display-p3 0.2471 0.2471 0.2471);fill-opacity:1;"/>
</g>
<defs>
<clipPath id="clip0_884_52057">
<rect width="18" height="18" fill="white" style="fill:white;fill-opacity:1;" transform="translate(2 2)"/>
</clipPath>
</defs>
</svg>
