<svg width="24" height="24" viewBox="0 0 24 24" fill="none" xmlns="http://www.w3.org/2000/svg">
<path d="M5.39556 10.1842C5.28802 10.0543 5.21151 9.90229 5.17167 9.73948C5.13183 9.57666 5.12967 9.40714 5.16534 9.2434C5.69492 6.785 8.56159 5 11.9828 5C15.404 5 18.2707 6.785 18.8002 9.2434C18.8363 9.40726 18.8344 9.57699 18.7948 9.74005C18.7552 9.90312 18.6788 10.0554 18.5712 10.1856C18.4637 10.3158 18.3278 10.4206 18.1735 10.4923C18.0192 10.5641 17.8505 10.6009 17.6798 10.6H6.28579C6.11518 10.6005 5.94664 10.5634 5.79257 10.4914C5.6385 10.4195 5.50283 10.3145 5.39556 10.1842ZM19.2001 13.9936L16.2685 15.0436L13.6221 13.9999C13.4862 13.9465 13.3346 13.9465 13.1987 13.9999L10.5616 15.0366L7.92012 13.9999C7.79008 13.9489 7.64547 13.9466 7.51385 13.9936L4.37776 15.1136C4.24521 15.1709 4.13983 15.2756 4.08301 15.4064C4.02618 15.5372 4.02217 15.6844 4.07178 15.818C4.1214 15.9516 4.22092 16.0617 4.35015 16.1259C4.47938 16.1901 4.62864 16.2035 4.76763 16.1636L5.7106 15.8283V16.2C5.7106 16.9426 6.01097 17.6548 6.54563 18.1799C7.0803 18.705 7.80546 19 8.56159 19H15.404C16.1601 19 16.8853 18.705 17.4199 18.1799C17.9546 17.6548 18.255 16.9426 18.255 16.2V15.5231L19.59 15.0464C19.6648 15.0249 19.7344 14.9885 19.7944 14.9395C19.8543 14.8906 19.9034 14.83 19.9386 14.7617C19.9738 14.6933 19.9944 14.6186 19.999 14.5421C20.0036 14.4656 19.9922 14.3891 19.9655 14.3171C19.9388 14.2451 19.8973 14.1793 19.8436 14.1237C19.79 14.0681 19.7253 14.0239 19.6535 13.9939C19.5818 13.9638 19.5045 13.9485 19.4265 13.949C19.3485 13.9494 19.2715 13.9655 19.2001 13.9964V13.9936ZM4.5702 12.84H19.3954C19.5466 12.84 19.6916 12.781 19.7986 12.676C19.9055 12.571 19.9656 12.4285 19.9656 12.28C19.9656 12.1315 19.9055 11.989 19.7986 11.884C19.6916 11.779 19.5466 11.72 19.3954 11.72H4.5702C4.41897 11.72 4.27394 11.779 4.16701 11.884C4.06007 11.989 4 12.1315 4 12.28C4 12.4285 4.06007 12.571 4.16701 12.676C4.27394 12.781 4.41897 12.84 4.5702 12.84Z" fill="#9F9F9F" style="fill:#9F9F9F;fill:color(display-p3 0.6235 0.6235 0.6235);fill-opacity:1;"/>
</svg>
