<svg width="24" height="24" viewBox="0 0 24 24" fill="none" xmlns="http://www.w3.org/2000/svg">
<path d="M20.5603 10.6213L13.0603 3.42143C12.779 3.15158 12.3977 3 12 3C11.6023 3 11.221 3.15158 10.9397 3.42143L3.4397 10.6213C3.29973 10.7547 3.18878 10.9134 3.1133 11.0883C3.03782 11.2632 2.99931 11.4508 3.00001 11.6401V20.28C3.00001 20.471 3.07903 20.6541 3.21968 20.7891C3.36033 20.9241 3.5511 21 3.75001 21H9.75C9.94891 21 10.1397 20.9241 10.2803 20.7891C10.421 20.6541 10.5 20.471 10.5 20.28V15.2401H13.5V20.28C13.5 20.471 13.579 20.6541 13.7197 20.7891C13.8603 20.9241 14.0511 21 14.25 21H20.25C20.4489 21 20.6397 20.9241 20.7803 20.7891C20.921 20.6541 21 20.471 21 20.28V11.6401C21.0007 11.4508 20.9622 11.2632 20.8867 11.0883C20.8112 10.9134 20.7003 10.7547 20.5603 10.6213ZM19.5 19.56H15V14.5201C15 14.3291 14.921 14.146 14.7803 14.011C14.6397 13.8759 14.4489 13.8001 14.25 13.8001H9.75C9.55109 13.8001 9.36033 13.8759 9.21967 14.011C9.07902 14.146 9 14.3291 9 14.5201V19.56H4.50001V11.6401L12 4.44021L19.5 11.6401V19.56Z" fill="#757575" style="fill:#757575;fill:color(display-p3 0.4588 0.4588 0.4588);fill-opacity:1;"/>
</svg>
