<svg width="24" height="24" viewBox="0 0 24 24" fill="none" xmlns="http://www.w3.org/2000/svg">
<path d="M21 11.6397V20.28C21 20.4709 20.921 20.6541 20.7803 20.7891C20.6397 20.9241 20.4489 21 20.25 21H15C14.8011 21 14.6103 20.9241 14.4697 20.7891C14.329 20.6541 14.25 20.4709 14.25 20.28V15.5998C14.25 15.5043 14.2105 15.4127 14.1402 15.3452C14.0698 15.2777 13.9745 15.2398 13.875 15.2398H10.125C10.0255 15.2398 9.93016 15.2777 9.85983 15.3452C9.78951 15.4127 9.75 15.5043 9.75 15.5998V20.28C9.75 20.4709 9.67098 20.6541 9.53033 20.7891C9.38968 20.9241 9.19891 21 9 21H3.75C3.55109 21 3.36032 20.9241 3.21967 20.7891C3.07902 20.6541 3 20.4709 3 20.28V11.6397C3.00018 11.2578 3.15834 10.8916 3.43969 10.6217L10.9397 3.42145C11.221 3.15159 11.6023 3 12 3C12.3977 3 12.779 3.15159 13.0603 3.42145L20.5603 10.6217C20.8417 10.8916 20.9998 11.2578 21 11.6397Z" fill="#74A0F8" style="fill:#74A0F8;fill:color(display-p3 0.4549 0.6275 0.9725);fill-opacity:1;"/>
</svg>
