<svg width="22" height="22" viewBox="0 0 22 22" fill="none" xmlns="http://www.w3.org/2000/svg">
<path d="M4 5.64706C4 5.47545 4.06146 5.31087 4.17085 5.18952C4.28025 5.06817 4.42862 5 4.58333 5H17.4167C17.5714 5 17.7197 5.06817 17.8291 5.18952C17.9385 5.31087 18 5.47545 18 5.64706C18 5.81867 17.9385 5.98325 17.8291 6.1046C17.7197 6.22595 17.5714 6.29412 17.4167 6.29412H4.58333C4.42862 6.29412 4.28025 6.22595 4.17085 6.1046C4.06146 5.98325 4 5.81867 4 5.64706ZM4.58333 9.52941H13.9167C14.0714 9.52941 14.2197 9.46124 14.3291 9.33989C14.4385 9.21855 14.5 9.05396 14.5 8.88235C14.5 8.71074 14.4385 8.54616 14.3291 8.42481C14.2197 8.30347 14.0714 8.23529 13.9167 8.23529H4.58333C4.42862 8.23529 4.28025 8.30347 4.17085 8.42481C4.06146 8.54616 4 8.71074 4 8.88235C4 9.05396 4.06146 9.21855 4.17085 9.33989C4.28025 9.46124 4.42862 9.52941 4.58333 9.52941ZM11.5833 11.4706H4.58333C4.42862 11.4706 4.28025 11.5388 4.17085 11.6601C4.06146 11.7815 4 11.946 4 12.1176C4 12.2893 4.06146 12.4538 4.17085 12.5752C4.28025 12.6965 4.42862 12.7647 4.58333 12.7647H11.5833C11.738 12.7647 11.8864 12.6965 11.9958 12.5752C12.1052 12.4538 12.1667 12.2893 12.1667 12.1176C12.1667 11.946 12.1052 11.7815 11.9958 11.6601C11.8864 11.5388 11.738 11.4706 11.5833 11.4706ZM8.66667 14.7059H4.58333C4.42862 14.7059 4.28025 14.7741 4.17085 14.8954C4.06146 15.0167 4 15.1813 4 15.3529C4 15.5246 4.06146 15.6891 4.17085 15.8105C4.28025 15.9318 4.42862 16 4.58333 16H8.66667C8.82138 16 8.96975 15.9318 9.07915 15.8105C9.18854 15.6891 9.25 15.5246 9.25 15.3529C9.25 15.1813 9.18854 15.0167 9.07915 14.8954C8.96975 14.7741 8.82138 14.7059 8.66667 14.7059Z" fill="#3F3F3F" style="fill:#3F3F3F;fill:color(display-p3 0.2489 0.2489 0.2489);fill-opacity:1;"/>
</svg>
