<svg width="22" height="22" viewBox="0 0 22 22" fill="none" xmlns="http://www.w3.org/2000/svg">
<g clip-path="url(#clip0_2709_125310)">
<path d="M9.43751 3.43841C9.63603 3.37803 9.85205 3.43191 9.99892 3.57848C10.1457 3.72505 10.2 3.94073 10.1401 4.13933C9.81591 5.21197 9.78871 6.3528 10.0615 7.43963C10.3344 8.52633 10.8969 9.51862 11.6892 10.3109C12.4815 11.1033 13.4742 11.6657 14.561 11.9385C15.6478 12.2113 16.7882 12.1847 17.8607 11.8605C18.0593 11.8005 18.275 11.8544 18.4216 12.0011C18.5682 12.148 18.622 12.364 18.5617 12.5626C18.1942 13.7707 17.52 14.8629 16.605 15.7332C15.6899 16.6035 14.565 17.2225 13.3399 17.5289C12.1147 17.8353 10.8309 17.8187 9.61384 17.4817C8.39683 17.1446 7.2878 16.4982 6.39485 15.6052C5.5019 14.7122 4.85542 13.6033 4.51839 12.3862C4.18135 11.1692 4.16529 9.88534 4.47169 8.66021C4.77813 7.43516 5.39661 6.31012 6.26686 5.39507C7.1371 4.48009 8.22943 3.80587 9.43751 3.43841ZM8.82558 4.88695C8.17579 5.20788 7.58509 5.64177 7.08205 6.17071C6.3457 6.94497 5.82247 7.89666 5.56319 8.93322C5.30392 9.96988 5.31754 11.0565 5.60274 12.0863C5.88794 13.116 6.43477 14.0543 7.19026 14.8098C7.94587 15.5654 8.88449 16.1127 9.91432 16.3979C10.9441 16.683 12.0302 16.6967 13.0668 16.4374C14.1035 16.1782 15.0556 15.6544 15.8299 14.918C16.3589 14.4149 16.7922 13.8238 17.1131 13.1739C16.1739 13.3093 15.214 13.2628 14.2869 13.03C13.0026 12.7076 11.83 12.0426 10.8938 11.1063C9.95753 10.1701 9.29242 8.99738 8.97005 7.71319C8.73735 6.78613 8.69017 5.82607 8.82558 4.88695Z" fill="#74A0F8" style="fill:#74A0F8;fill:color(display-p3 0.4549 0.6275 0.9725);fill-opacity:1;"/>
</g>
<defs>
<clipPath id="clip0_2709_125310">
<rect width="18" height="18" fill="white" style="fill:white;fill-opacity:1;" transform="translate(2 2)"/>
</clipPath>
</defs>
</svg>
