<svg width="24" height="24" viewBox="0 0 24 24" fill="none" xmlns="http://www.w3.org/2000/svg">
<path d="M22 11.5C22.0006 11.7481 21.9373 11.9922 21.8162 12.2084C21.6951 12.4246 21.5204 12.6057 21.3091 12.734L8.21091 20.7849C7.99008 20.9208 7.73715 20.9949 7.47825 20.9998C7.21935 21.0046 6.96387 20.9399 6.73818 20.8123C6.51465 20.6867 6.32843 20.5036 6.19869 20.2817C6.06896 20.0599 6.00037 19.8073 6 19.5499V3.45005C6.00037 3.19273 6.06896 2.94015 6.19869 2.71828C6.32843 2.49642 6.51465 2.31329 6.73818 2.18771C6.96387 2.06015 7.21935 1.99543 7.47825 2.00025C7.73715 2.00507 7.99008 2.07924 8.21091 2.21511L21.3091 10.266C21.5204 10.3943 21.6951 10.5754 21.8162 10.7916C21.9373 11.0078 22.0006 11.2519 22 11.5Z" fill="#3F3F3F" style="fill:#3F3F3F;fill:color(display-p3 0.2489 0.2489 0.2489);fill-opacity:1;"/>
</svg>
