<svg width="12" height="12" viewBox="0 0 12 12" fill="none" xmlns="http://www.w3.org/2000/svg">
<path d="M11.25 6C11.2503 6.12733 11.2177 6.25257 11.1552 6.36354C11.0928 6.47451 11.0027 6.56744 10.8937 6.63329L4.14 10.7648C4.02613 10.8346 3.89572 10.8726 3.76222 10.8751C3.62873 10.8776 3.49699 10.8444 3.38063 10.7789C3.26536 10.7145 3.16935 10.6205 3.10245 10.5066C3.03556 10.3928 3.00019 10.2632 3 10.1311V1.86891C3.00019 1.73686 3.03556 1.60724 3.10245 1.49338C3.16935 1.37953 3.26536 1.28554 3.38063 1.2211C3.49699 1.15564 3.62873 1.12243 3.76222 1.1249C3.89572 1.12737 4.02613 1.16544 4.14 1.23516L10.8937 5.36672C11.0027 5.43257 11.0928 5.5255 11.1552 5.63647C11.2177 5.74744 11.2503 5.87268 11.25 6Z" fill="#757575" style="fill:#757575;fill:color(display-p3 0.4588 0.4588 0.4588);fill-opacity:1;"/>
</svg>
