<svg width="22" height="22" viewBox="0 0 22 22" fill="none" xmlns="http://www.w3.org/2000/svg">
<path d="M18 11C18 11.1547 17.9385 11.3031 17.8291 11.4125C17.7198 11.5219 17.5714 11.5833 17.4167 11.5833H11.5833V17.4167C11.5833 17.5714 11.5219 17.7198 11.4125 17.8291C11.3031 17.9385 11.1547 18 11 18C10.8453 18 10.6969 17.9385 10.5875 17.8291C10.4781 17.7198 10.4167 17.5714 10.4167 17.4167V11.5833H4.58333C4.42862 11.5833 4.28025 11.5219 4.17085 11.4125C4.06146 11.3031 4 11.1547 4 11C4 10.8453 4.06146 10.6969 4.17085 10.5875C4.28025 10.4781 4.42862 10.4167 4.58333 10.4167H10.4167V4.58333C10.4167 4.42862 10.4781 4.28025 10.5875 4.17085C10.6969 4.06146 10.8453 4 11 4C11.1547 4 11.3031 4.06146 11.4125 4.17085C11.5219 4.28025 11.5833 4.42862 11.5833 4.58333V10.4167H17.4167C17.5714 10.4167 17.7198 10.4781 17.8291 10.5875C17.9385 10.6969 18 10.8453 18 11Z" fill="#9F9F9F" style="fill:#9F9F9F;fill:color(display-p3 0.6235 0.6235 0.6235);fill-opacity:1;"/>
</svg>
