<svg width="22" height="22" viewBox="0 0 22 22" fill="none" xmlns="http://www.w3.org/2000/svg">
<path d="M8.08333 9.21391H4.58333C4.42862 9.21391 4.28025 9.15119 4.17085 9.03953C4.06146 8.92788 4 8.77645 4 8.61855V5.04637C4 4.88847 4.06146 4.73704 4.17085 4.62539C4.28025 4.51374 4.42862 4.45101 4.58333 4.45101C4.73804 4.45101 4.88642 4.51374 4.99581 4.62539C5.10521 4.73704 5.16667 4.88847 5.16667 5.04637V7.18149L6.23344 6.09272C7.53443 4.75822 9.30133 4.00552 11.1458 4.00002H11.1845C13.0133 3.99522 14.7703 4.72595 16.075 6.03393C16.1815 6.14516 16.2412 6.29452 16.2412 6.45006C16.2412 6.6056 16.1816 6.75497 16.075 6.86621C15.9685 6.97745 15.8236 7.04173 15.6712 7.0453C15.5189 7.04887 15.3712 6.99144 15.2598 6.8853C14.1723 5.79584 12.7083 5.1871 11.1845 5.19075H11.1517C9.61471 5.19558 8.14245 5.8227 7.05813 6.93442L5.99135 8.02319H8.08333C8.23804 8.02319 8.38642 8.08591 8.49581 8.19757C8.60521 8.30922 8.66667 8.46065 8.66667 8.61855C8.66667 8.77645 8.60521 8.92788 8.49581 9.03953C8.38642 9.15119 8.23804 9.21391 8.08333 9.21391ZM17.4167 12.7861H13.9167C13.762 12.7861 13.6136 12.8488 13.5042 12.9605C13.3948 13.0721 13.3333 13.2236 13.3333 13.3815C13.3333 13.5394 13.3948 13.6908 13.5042 13.8024C13.6136 13.9141 13.762 13.9768 13.9167 13.9768H16.0086L14.9419 15.0656C13.8577 16.1771 12.3858 16.8042 10.8491 16.8093H10.8162C9.29242 16.8129 7.82843 16.2042 6.74094 15.1147C6.6866 15.058 6.62171 15.0129 6.55007 14.9821C6.47843 14.9513 6.40148 14.9355 6.32376 14.9355C6.24603 14.9355 6.16909 14.9514 6.09745 14.9821C6.02581 15.0129 5.96092 15.058 5.9066 15.1147C5.85227 15.1715 5.8096 15.2387 5.7811 15.3125C5.75259 15.3863 5.73883 15.4652 5.74061 15.5445C5.74239 15.6238 5.75969 15.702 5.79148 15.7744C5.82327 15.8468 5.86891 15.9119 5.92573 15.9661C7.2304 17.2741 8.98744 18.0048 10.8162 18H10.8542C12.6984 17.9943 14.465 17.2416 15.7658 15.9073L16.8333 14.8185V16.9536C16.8333 17.1115 16.8948 17.263 17.0042 17.3746C17.1136 17.4863 17.262 17.549 17.4167 17.549C17.5714 17.549 17.7197 17.4863 17.8291 17.3746C17.9385 17.263 18 17.1115 18 16.9536V13.3815C18 13.2236 17.9385 13.0721 17.8291 12.9605C17.7197 12.8488 17.5714 12.7861 17.4167 12.7861Z" fill="#74A0F8" style="fill:#74A0F8;fill:color(display-p3 0.4549 0.6275 0.9725);fill-opacity:1;"/>
</svg>
