<svg width="24" height="24" viewBox="0 0 24 24" fill="none" xmlns="http://www.w3.org/2000/svg">
<path d="M19.5664 12.1845C19.5698 12.0606 19.5698 11.9368 19.5664 11.813L20.8494 10.21C20.9167 10.1258 20.9633 10.027 20.9854 9.92159C21.0075 9.81613 21.0045 9.70696 20.9767 9.60286C20.766 8.81234 20.4514 8.05326 20.0411 7.34547C19.9873 7.25287 19.9126 7.17409 19.8231 7.11542C19.7335 7.05675 19.6315 7.0198 19.5251 7.0075L17.4853 6.78048C17.4004 6.69104 17.3144 6.60504 17.2273 6.52249L16.9865 4.4775C16.9741 4.37105 16.937 4.26896 16.8782 4.17938C16.8194 4.0898 16.7404 4.0152 16.6477 3.96153C15.9399 3.55154 15.1808 3.23748 14.3903 3.02761C14.2862 2.9998 14.177 2.99683 14.0715 3.01894C13.9661 3.04104 13.8673 3.08761 13.7831 3.15489L12.1845 4.43107C12.0606 4.43107 11.9368 4.43107 11.813 4.43107L10.21 3.15059C10.1258 3.08331 10.027 3.03674 9.92159 3.01464C9.81613 2.99253 9.70696 2.9955 9.60286 3.02331C8.81234 3.23403 8.05326 3.54865 7.34547 3.95895C7.25287 4.01272 7.17409 4.08736 7.11542 4.17694C7.05675 4.26651 7.0198 4.36855 7.0075 4.47492L6.78048 6.51819C6.69104 6.60361 6.60504 6.68961 6.52249 6.77618L4.4775 7.01094C4.37105 7.02333 4.26896 7.06041 4.17938 7.11924C4.0898 7.17806 4.0152 7.25701 3.96153 7.34977C3.55163 8.05766 3.2373 8.81672 3.02675 9.60716C2.99906 9.71133 2.99623 9.82054 3.01848 9.92599C3.04074 10.0315 3.08746 10.1302 3.15489 10.2143L4.43107 11.813C4.43107 11.9368 4.43107 12.0606 4.43107 12.1845L3.15059 13.7874C3.08331 13.8716 3.03674 13.9704 3.01464 14.0758C2.99253 14.1813 2.9955 14.2905 3.02331 14.3946C3.23403 15.1851 3.54865 15.9442 3.95895 16.652C4.01272 16.7446 4.08736 16.8233 4.17694 16.882C4.26651 16.9407 4.36855 16.9776 4.47492 16.9899L6.51475 17.2169C6.60017 17.3064 6.68617 17.3924 6.77274 17.4749L7.01094 19.5199C7.02333 19.6264 7.06041 19.7285 7.11924 19.818C7.17806 19.9076 7.25701 19.9822 7.34977 20.0359C8.05766 20.4458 8.81672 20.7601 9.60716 20.9707C9.71133 20.9984 9.82054 21.0012 9.92599 20.9789C10.0315 20.9567 10.1302 20.91 10.2143 20.8425L11.813 19.5664C11.9368 19.5698 12.0606 19.5698 12.1845 19.5664L13.7874 20.8494C13.8716 20.9167 13.9704 20.9633 14.0758 20.9854C14.1813 21.0075 14.2905 21.0045 14.3946 20.9767C15.1852 20.7663 15.9443 20.4517 16.652 20.0411C16.7446 19.9873 16.8233 19.9126 16.882 19.8231C16.9407 19.7335 16.9776 19.6315 16.9899 19.5251L17.2169 17.4853C17.3064 17.4004 17.3924 17.3144 17.4749 17.2273L19.5199 16.9865C19.6264 16.9741 19.7285 16.937 19.818 16.8782C19.9076 16.8194 19.9822 16.7404 20.0359 16.6477C20.4458 15.9398 20.7601 15.1807 20.9707 14.3903C20.9984 14.2861 21.0012 14.1769 20.9789 14.0714C20.9567 13.966 20.91 13.8672 20.8425 13.7831L19.5664 12.1845ZM11.9987 15.4385C11.3184 15.4385 10.6533 15.2368 10.0876 14.8588C9.52196 14.4809 9.08107 13.9436 8.82071 13.3151C8.56036 12.6865 8.49224 11.9949 8.62497 11.3276C8.75769 10.6604 9.08531 10.0474 9.56638 9.56638C10.0474 9.08531 10.6604 8.75769 11.3276 8.62497C11.9949 8.49224 12.6865 8.56036 13.3151 8.82071C13.9436 9.08107 14.4809 9.52196 14.8588 10.0876C15.2368 10.6533 15.4385 11.3184 15.4385 11.9987C15.4385 12.911 15.0761 13.7859 14.431 14.431C13.7859 15.0761 12.911 15.4385 11.9987 15.4385Z" fill="#74A0F8" style="fill:#74A0F8;fill:color(display-p3 0.4549 0.6275 0.9725);fill-opacity:1;"/>
</svg>
