<svg width="24" height="24" viewBox="0 0 24 24" fill="none" xmlns="http://www.w3.org/2000/svg">
<path d="M11.9987 7.8709C11.1823 7.8709 10.3842 8.113 9.70542 8.56657C9.02661 9.02013 8.49754 9.66481 8.18511 10.4191C7.87269 11.1733 7.79095 12.0033 7.95022 12.804C8.10949 13.6047 8.50263 14.3402 9.07991 14.9175C9.65719 15.4948 10.3927 15.8879 11.1934 16.0472C11.9941 16.2065 12.8241 16.1247 13.5784 15.8123C14.3326 15.4999 14.9773 14.9708 15.4309 14.292C15.8844 13.6132 16.1265 12.8151 16.1265 11.9987C16.1254 10.9043 15.6901 9.85503 14.9163 9.08117C14.1424 8.3073 13.0931 7.87204 11.9987 7.8709ZM11.9987 14.7506C11.4544 14.7506 10.9224 14.5892 10.4699 14.2868C10.0173 13.9844 9.6646 13.5546 9.45631 13.0518C9.24803 12.549 9.19353 11.9957 9.29972 11.4618C9.4059 10.928 9.66799 10.4377 10.0528 10.0528C10.4377 9.66799 10.928 9.4059 11.4618 9.29972C11.9957 9.19353 12.549 9.24803 13.0518 9.45631C13.5546 9.6646 13.9844 10.0173 14.2868 10.4699C14.5892 10.9224 14.7506 11.4544 14.7506 11.9987C14.7506 12.7286 14.4607 13.4285 13.9446 13.9446C13.4285 14.4607 12.7286 14.7506 11.9987 14.7506ZM19.5664 12.1845C19.5698 12.0606 19.5698 11.9368 19.5664 11.813L20.8494 10.21C20.9167 10.1258 20.9633 10.027 20.9854 9.92159C21.0075 9.81613 21.0045 9.70696 20.9767 9.60286C20.7663 8.81222 20.4517 8.05309 20.0411 7.34547C19.9873 7.25287 19.9126 7.17409 19.8231 7.11542C19.7335 7.05675 19.6315 7.0198 19.5251 7.0075L17.4853 6.78048C17.4004 6.69104 17.3144 6.60504 17.2273 6.52249L16.9865 4.4775C16.9741 4.37105 16.937 4.26896 16.8782 4.17938C16.8194 4.0898 16.7404 4.0152 16.6477 3.96153C15.9398 3.55163 15.1807 3.2373 14.3903 3.02675C14.2861 2.99906 14.1769 2.99623 14.0714 3.01848C13.966 3.04074 13.8672 3.08746 13.7831 3.15489L12.1845 4.43107C12.0606 4.43107 11.9368 4.43107 11.813 4.43107L10.21 3.15059C10.1258 3.08331 10.027 3.03674 9.92159 3.01464C9.81613 2.99253 9.70696 2.9955 9.60286 3.02331C8.81234 3.23403 8.05326 3.54865 7.34547 3.95895C7.25287 4.01272 7.17409 4.08736 7.11542 4.17694C7.05675 4.26651 7.0198 4.36855 7.0075 4.47492L6.78048 6.51819C6.69104 6.60361 6.60504 6.68961 6.52249 6.77618L4.4775 7.01094C4.37105 7.02333 4.26896 7.06041 4.17938 7.11924C4.0898 7.17806 4.0152 7.25701 3.96153 7.34977C3.55163 8.05766 3.2373 8.81672 3.02675 9.60716C2.99906 9.71133 2.99623 9.82054 3.01848 9.92599C3.04074 10.0315 3.08746 10.1302 3.15489 10.2143L4.43107 11.813C4.43107 11.9368 4.43107 12.0606 4.43107 12.1845L3.15059 13.7874C3.08331 13.8716 3.03674 13.9704 3.01464 14.0758C2.99253 14.1813 2.9955 14.2905 3.02331 14.3946C3.23365 15.1852 3.54829 15.9443 3.95895 16.652C4.01272 16.7446 4.08736 16.8233 4.17694 16.882C4.26651 16.9407 4.36855 16.9776 4.47492 16.9899L6.51475 17.2169C6.60017 17.3064 6.68617 17.3924 6.77274 17.4749L7.01094 19.5199C7.02333 19.6264 7.06041 19.7285 7.11924 19.818C7.17806 19.9076 7.25701 19.9822 7.34977 20.0359C8.05766 20.4458 8.81672 20.7601 9.60716 20.9707C9.71133 20.9984 9.82054 21.0012 9.92599 20.9789C10.0315 20.9567 10.1302 20.91 10.2143 20.8425L11.813 19.5664C11.9368 19.5698 12.0606 19.5698 12.1845 19.5664L13.7874 20.8494C13.8716 20.9167 13.9704 20.9633 14.0758 20.9854C14.1813 21.0075 14.2905 21.0045 14.3946 20.9767C15.1852 20.7663 15.9443 20.4517 16.652 20.0411C16.7446 19.9873 16.8233 19.9126 16.882 19.8231C16.9407 19.7335 16.9776 19.6315 16.9899 19.5251L17.2169 17.4853C17.3064 17.4004 17.3924 17.3144 17.4749 17.2273L19.5199 16.9865C19.6264 16.9741 19.7285 16.937 19.818 16.8782C19.9076 16.8194 19.9822 16.7404 20.0359 16.6477C20.4458 15.9398 20.7601 15.1807 20.9707 14.3903C20.9984 14.2861 21.0012 14.1769 20.9789 14.0714C20.9567 13.966 20.91 13.8672 20.8425 13.7831L19.5664 12.1845ZM18.1818 11.6255C18.1964 11.8741 18.1964 12.1233 18.1818 12.3719C18.1716 12.5421 18.2249 12.7101 18.3315 12.8432L19.5517 14.3679C19.4117 14.8129 19.2324 15.2446 19.016 15.6578L17.0725 15.878C16.9032 15.8968 16.7469 15.9777 16.6339 16.105C16.4684 16.2912 16.2921 16.4675 16.1059 16.633C15.9785 16.7461 15.8976 16.9024 15.8788 17.0716L15.663 19.0134C15.2498 19.2299 14.8181 19.4092 14.3731 19.5492L12.8475 18.3289C12.7254 18.2313 12.5738 18.1783 12.4175 18.1784H12.3762C12.1276 18.193 11.8784 18.193 11.6298 18.1784C11.4596 18.1681 11.2916 18.2215 11.1585 18.328L9.62952 19.5492C9.18452 19.4091 8.75284 19.2298 8.33958 19.0134L8.11943 17.0725C8.10065 16.9032 8.01975 16.7469 7.8924 16.6339C7.70623 16.4684 7.52992 16.2921 7.36439 16.1059C7.25133 15.9785 7.09506 15.8976 6.92581 15.8788L4.98402 15.6621C4.76747 15.2489 4.58818 14.8172 4.44826 14.3722L5.66855 12.8466C5.7751 12.7135 5.82843 12.5456 5.81818 12.3754C5.80356 12.1268 5.80356 11.8775 5.81818 11.6289C5.82843 11.4587 5.7751 11.2908 5.66855 11.1577L4.44826 9.62952C4.58829 9.18452 4.76758 8.75284 4.98402 8.33958L6.92495 8.11943C7.0942 8.10065 7.25047 8.01975 7.36353 7.8924C7.52906 7.70623 7.70537 7.52992 7.89154 7.36439C8.0194 7.25126 8.10062 7.09463 8.11943 6.92495L8.33528 4.98402C8.7485 4.76747 9.18018 4.58818 9.62522 4.44826L11.1508 5.66855C11.2839 5.7751 11.4518 5.82843 11.622 5.81818C11.8706 5.80356 12.1199 5.80356 12.3685 5.81818C12.5387 5.82843 12.7066 5.7751 12.8398 5.66855L14.3679 4.44826C14.8129 4.58829 15.2446 4.76758 15.6578 4.98402L15.878 6.92495C15.8968 7.0942 15.9777 7.25047 16.105 7.36353C16.2912 7.52906 16.4675 7.70537 16.633 7.89154C16.7461 8.01889 16.9024 8.09978 17.0716 8.11857L19.0134 8.33442C19.2299 8.74764 19.4092 9.17932 19.5492 9.62436L18.3289 11.1499C18.2213 11.2842 18.1679 11.4538 18.1792 11.6255H18.1818Z" fill="#757575" style="fill:#757575;fill:color(display-p3 0.4588 0.4588 0.4588);fill-opacity:1;"/>
</svg>
