<svg width="24" height="24" viewBox="0 0 24 24" fill="none" xmlns="http://www.w3.org/2000/svg">
<path d="M20.4615 3H3.53846C3.13044 3 2.73912 3.1724 2.4506 3.47928C2.16209 3.78616 2 4.20237 2 4.63636V19.3636C2 19.7976 2.16209 20.2138 2.4506 20.5207C2.73912 20.8276 3.13044 21 3.53846 21H20.4615C20.8696 21 21.2609 20.8276 21.5494 20.5207C21.8379 20.2138 22 19.7976 22 19.3636V4.63636C22 4.20237 21.8379 3.78616 21.5494 3.47928C21.2609 3.1724 20.8696 3 20.4615 3ZM3.53846 4.63636H7.38462V19.3636H3.53846V4.63636ZM20.4615 19.3636H8.92308V4.63636H20.4615V19.3636Z" fill="#3F3F3F" style="fill:#3F3F3F;fill:color(display-p3 0.2471 0.2471 0.2471);fill-opacity:1;"/>
</svg>
