<svg width="24" height="24" viewBox="0 0 24 24" fill="none" xmlns="http://www.w3.org/2000/svg">
<path d="M3.53846 3H20.4615C20.8696 3 21.2609 3.1724 21.5494 3.47928C21.8379 3.78616 22 4.20237 22 4.63636V19.3636C22 19.7976 21.8379 20.2138 21.5494 20.5207C21.2609 20.8276 20.8696 21 20.4615 21H3.53846C3.13044 21 2.73912 20.8276 2.45061 20.5207C2.16209 20.2138 2 19.7976 2 19.3636V4.63636C2 4.20237 2.16209 3.78616 2.45061 3.47928C2.73912 3.1724 3.13044 3 3.53846 3ZM20.4615 4.63636H16.6154V19.3636H20.4615V4.63636ZM3.53846 19.3636H15.0769V4.63636H3.53846V19.3636Z" fill="#3F3F3F" style="fill:#3F3F3F;fill:color(display-p3 0.2471 0.2471 0.2471);fill-opacity:1;"/>
</svg>
