<svg width="12" height="12" viewBox="0 0 12 12" fill="none" xmlns="http://www.w3.org/2000/svg">
<path d="M10 1.83333V10.1667C10 10.3877 9.92338 10.5996 9.78699 10.7559C9.6506 10.9122 9.46561 11 9.27273 11H7.45455C7.26166 11 7.07668 10.9122 6.94029 10.7559C6.8039 10.5996 6.72727 10.3877 6.72727 10.1667V1.83333C6.72727 1.61232 6.8039 1.40036 6.94029 1.24408C7.07668 1.0878 7.26166 1 7.45455 1H9.27273C9.46561 1 9.6506 1.0878 9.78699 1.24408C9.92338 1.40036 10 1.61232 10 1.83333ZM4.54545 1H2.72727C2.53439 1 2.3494 1.0878 2.21301 1.24408C2.07662 1.40036 2 1.61232 2 1.83333V10.1667C2 10.3877 2.07662 10.5996 2.21301 10.7559C2.3494 10.9122 2.53439 11 2.72727 11H4.54545C4.73834 11 4.92332 10.9122 5.05971 10.7559C5.1961 10.5996 5.27273 10.3877 5.27273 10.1667V1.83333C5.27273 1.61232 5.1961 1.40036 5.05971 1.24408C4.92332 1.0878 4.73834 1 4.54545 1Z" fill="#74A0F8" style="fill:#74A0F8;fill:color(display-p3 0.4549 0.6275 0.9725);fill-opacity:1;"/>
</svg>
