<svg width="22" height="22" viewBox="0 0 22 22" fill="none" xmlns="http://www.w3.org/2000/svg">
<g clip-path="url(#clip0_1655_76747)">
<path d="M10.4375 4.8125V4.25C10.4375 3.93934 10.6893 3.6875 11 3.6875C11.3107 3.6875 11.5625 3.93934 11.5625 4.25V4.8125C11.5625 5.12316 11.3107 5.375 11 5.375C10.6893 5.375 10.4375 5.12316 10.4375 4.8125Z" fill="#74A0F8" style="fill:#74A0F8;fill:color(display-p3 0.4549 0.6275 0.9725);fill-opacity:1;"/>
<path d="M14.375 11C14.375 9.13604 12.864 7.625 11 7.625C9.13604 7.625 7.625 9.13604 7.625 11C7.625 12.864 9.13604 14.375 11 14.375C12.864 14.375 14.375 12.864 14.375 11ZM15.5 11C15.5 13.4853 13.4853 15.5 11 15.5C8.51472 15.5 6.5 13.4853 6.5 11C6.5 8.51472 8.51472 6.5 11 6.5C13.4853 6.5 15.5 8.51472 15.5 11Z" fill="#74A0F8" style="fill:#74A0F8;fill:color(display-p3 0.4549 0.6275 0.9725);fill-opacity:1;"/>
<path d="M5.53975 5.53975C5.75942 5.32008 6.11549 5.32008 6.33516 5.53975L6.89766 6.10225C7.11733 6.32192 7.11733 6.67799 6.89766 6.89766C6.67799 7.11733 6.32192 7.11733 6.10225 6.89766L5.53975 6.33516C5.32008 6.11549 5.32008 5.75942 5.53975 5.53975Z" fill="#74A0F8" style="fill:#74A0F8;fill:color(display-p3 0.4549 0.6275 0.9725);fill-opacity:1;"/>
<path d="M6.10225 15.1023C6.32192 14.8826 6.67799 14.8826 6.89766 15.1023C7.11733 15.3219 7.11733 15.678 6.89766 15.8977L6.33516 16.4602C6.11549 16.6798 5.75942 16.6798 5.53975 16.4602C5.32008 16.2405 5.32008 15.8844 5.53975 15.6648L6.10225 15.1023Z" fill="#74A0F8" style="fill:#74A0F8;fill:color(display-p3 0.4549 0.6275 0.9725);fill-opacity:1;"/>
<path d="M15.6648 5.53975C15.8844 5.32008 16.2405 5.32008 16.4602 5.53975C16.6798 5.75942 16.6798 6.11549 16.4602 6.33516L15.8977 6.89766C15.678 7.11733 15.3219 7.11733 15.1023 6.89766C14.8826 6.67799 14.8826 6.32192 15.1023 6.10225L15.6648 5.53975Z" fill="#74A0F8" style="fill:#74A0F8;fill:color(display-p3 0.4549 0.6275 0.9725);fill-opacity:1;"/>
<path d="M15.1023 15.1023C15.3219 14.8826 15.678 14.8826 15.8977 15.1023L16.4602 15.6648C16.6798 15.8844 16.6798 16.2405 16.4602 16.4602C16.2405 16.6798 15.8844 16.6798 15.6648 16.4602L15.1023 15.8977C14.8826 15.678 14.8826 15.3219 15.1023 15.1023Z" fill="#74A0F8" style="fill:#74A0F8;fill:color(display-p3 0.4549 0.6275 0.9725);fill-opacity:1;"/>
<path d="M4.8125 10.4375C5.12316 10.4375 5.375 10.6893 5.375 11C5.375 11.3107 5.12316 11.5625 4.8125 11.5625H4.25C3.93934 11.5625 3.6875 11.3107 3.6875 11C3.6875 10.6893 3.93934 10.4375 4.25 10.4375H4.8125Z" fill="#74A0F8" style="fill:#74A0F8;fill:color(display-p3 0.4549 0.6275 0.9725);fill-opacity:1;"/>
<path d="M10.4375 17.75V17.1875C10.4375 16.8768 10.6893 16.625 11 16.625C11.3107 16.625 11.5625 16.8768 11.5625 17.1875V17.75C11.5625 18.0607 11.3107 18.3125 11 18.3125C10.6893 18.3125 10.4375 18.0607 10.4375 17.75Z" fill="#74A0F8" style="fill:#74A0F8;fill:color(display-p3 0.4549 0.6275 0.9725);fill-opacity:1;"/>
<path d="M17.75 10.4375C18.0607 10.4375 18.3125 10.6893 18.3125 11C18.3125 11.3107 18.0607 11.5625 17.75 11.5625H17.1875C16.8768 11.5625 16.625 11.3107 16.625 11C16.625 10.6893 16.8768 10.4375 17.1875 10.4375H17.75Z" fill="#74A0F8" style="fill:#74A0F8;fill:color(display-p3 0.4549 0.6275 0.9725);fill-opacity:1;"/>
</g>
<defs>
<clipPath id="clip0_1655_76747">
<rect width="18" height="18" fill="white" style="fill:white;fill-opacity:1;" transform="translate(2 2)"/>
</clipPath>
</defs>
</svg>
