<svg width="24" height="24" viewBox="0 0 24 24" fill="none" xmlns="http://www.w3.org/2000/svg">
<path d="M12 4.85714C10.3189 4.85714 8.67547 5.35985 7.27766 6.30169C5.87984 7.24353 4.79037 8.5822 4.14703 10.1484C3.50368 11.7147 3.33535 13.4381 3.66333 15.1008C3.9913 16.7635 4.80085 18.2907 5.9896 19.4895C7.17834 20.6882 8.6929 21.5046 10.3417 21.8353C11.9906 22.166 13.6996 21.9963 15.2528 21.3475C16.806 20.6988 18.1335 19.6002 19.0675 18.1906C20.0015 16.781 20.5 15.1238 20.5 13.4286C20.4974 11.1561 19.6011 8.97742 18.0076 7.37053C16.4141 5.76364 14.2536 4.85974 12 4.85714ZM12 20.5714C10.5991 20.5714 9.22956 20.1525 8.06471 19.3676C6.89987 18.5828 5.99198 17.4672 5.45586 16.162C4.91974 14.8568 4.77946 13.4206 5.05277 12.0351C5.32609 10.6495 6.00071 9.37675 6.99133 8.37781C7.98195 7.37886 9.24408 6.69857 10.6181 6.42296C11.9921 6.14735 13.4164 6.28881 14.7107 6.82943C16.005 7.37006 17.1112 8.28557 17.8896 9.46021C18.6679 10.6348 19.0833 12.0158 19.0833 13.4286C19.0812 15.3223 18.3343 17.1379 17.0063 18.477C15.6784 19.8161 13.878 20.5693 12 20.5714ZM16.0428 9.35178C16.1087 9.41812 16.1609 9.4969 16.1966 9.58361C16.2322 9.67033 16.2506 9.76327 16.2506 9.85714C16.2506 9.95101 16.2322 10.044 16.1966 10.1307C16.1609 10.2174 16.1087 10.2962 16.0428 10.3625L12.5011 13.9339C12.4353 14.0003 12.3572 14.0529 12.2712 14.0889C12.1852 14.1248 12.0931 14.1433 12 14.1433C11.9069 14.1433 11.8148 14.1248 11.7288 14.0889C11.6428 14.0529 11.5647 14.0003 11.4989 13.9339C11.433 13.8676 11.3808 13.7888 11.3452 13.7021C11.3096 13.6154 11.2913 13.5224 11.2913 13.4286C11.2913 13.3347 11.3096 13.2418 11.3452 13.1551C11.3808 13.0684 11.433 12.9896 11.4989 12.9232L15.0405 9.35178C15.1063 9.28537 15.1844 9.23269 15.2704 9.19674C15.3564 9.1608 15.4486 9.14229 15.5417 9.14229C15.6348 9.14229 15.7269 9.1608 15.8129 9.19674C15.8989 9.23269 15.977 9.28537 16.0428 9.35178ZM9.16667 2.71429C9.16667 2.52485 9.2413 2.34316 9.37414 2.20921C9.50697 2.07525 9.68714 2 9.875 2H14.125C14.3129 2 14.493 2.07525 14.6259 2.20921C14.7587 2.34316 14.8333 2.52485 14.8333 2.71429C14.8333 2.90373 14.7587 3.08541 14.6259 3.21936C14.493 3.35332 14.3129 3.42857 14.125 3.42857H9.875C9.68714 3.42857 9.50697 3.35332 9.37414 3.21936C9.2413 3.08541 9.16667 2.90373 9.16667 2.71429Z" fill="#757575" style="fill:#757575;fill:color(display-p3 0.4588 0.4588 0.4588);fill-opacity:1;"/>
</svg>
