<svg width="24" height="24" viewBox="0 0 24 24" fill="none" xmlns="http://www.w3.org/2000/svg">
<path d="M12 4.85714C10.3189 4.85714 8.67547 5.35985 7.27766 6.30169C5.87984 7.24353 4.79037 8.5822 4.14703 10.1484C3.50368 11.7147 3.33535 13.4381 3.66333 15.1008C3.9913 16.7635 4.80085 18.2907 5.9896 19.4895C7.17834 20.6882 8.6929 21.5046 10.3417 21.8353C11.9906 22.166 13.6996 21.9963 15.2528 21.3475C16.806 20.6988 18.1335 19.6002 19.0675 18.1906C20.0015 16.781 20.5 15.1238 20.5 13.4286C20.4974 11.1561 19.6011 8.97742 18.0076 7.37053C16.4141 5.76363 14.2536 4.85974 12 4.85714ZM16.0428 10.3625L12.5011 13.9339C12.4353 14.0003 12.3572 14.0529 12.2712 14.0889C12.1852 14.1248 12.0931 14.1433 12 14.1433C11.9069 14.1433 11.8148 14.1248 11.7288 14.0889C11.6428 14.0529 11.5647 14.0003 11.4989 13.9339C11.433 13.8676 11.3808 13.7888 11.3452 13.7021C11.3096 13.6154 11.2913 13.5224 11.2913 13.4286C11.2913 13.3347 11.3096 13.2418 11.3452 13.1551C11.3808 13.0684 11.433 12.9896 11.4989 12.9232L15.0405 9.35178C15.1063 9.28542 15.1845 9.23278 15.2704 9.19686C15.3564 9.16094 15.4486 9.14246 15.5417 9.14246C15.6347 9.14246 15.7269 9.16094 15.8129 9.19686C15.8989 9.23278 15.977 9.28542 16.0428 9.35178C16.1086 9.41815 16.1608 9.49693 16.1964 9.58364C16.2321 9.67035 16.2504 9.76329 16.2504 9.85714C16.2504 9.951 16.2321 10.0439 16.1964 10.1306C16.1608 10.2173 16.1086 10.2961 16.0428 10.3625ZM9.16667 2.71429C9.16667 2.52485 9.2413 2.34316 9.37414 2.20921C9.50697 2.07525 9.68714 2 9.875 2H14.125C14.3129 2 14.493 2.07525 14.6259 2.20921C14.7587 2.34316 14.8333 2.52485 14.8333 2.71429C14.8333 2.90373 14.7587 3.08541 14.6259 3.21936C14.493 3.35332 14.3129 3.42857 14.125 3.42857H9.875C9.68714 3.42857 9.50697 3.35332 9.37414 3.21936C9.2413 3.08541 9.16667 2.90373 9.16667 2.71429Z" fill="#74A0F8" style="fill:#74A0F8;fill:color(display-p3 0.4549 0.6275 0.9725);fill-opacity:1;"/>
</svg>
