<svg width="24" height="24" viewBox="0 0 24 24" fill="none" xmlns="http://www.w3.org/2000/svg">
<path d="M19.5 3.96154H17.25V3.23077C17.25 3.03696 17.171 2.85108 17.0303 2.71404C16.8897 2.57699 16.6989 2.5 16.5 2.5C16.3011 2.5 16.1103 2.57699 15.9697 2.71404C15.829 2.85108 15.75 3.03696 15.75 3.23077V3.96154H8.25V3.23077C8.25 3.03696 8.17098 2.85108 8.03033 2.71404C7.88968 2.57699 7.69891 2.5 7.5 2.5C7.30109 2.5 7.11032 2.57699 6.96967 2.71404C6.82902 2.85108 6.75 3.03696 6.75 3.23077V3.96154H4.5C4.10218 3.96154 3.72064 4.11552 3.43934 4.38961C3.15804 4.6637 3 5.03545 3 5.42308V20.0385C3 20.4261 3.15804 20.7978 3.43934 21.0719C3.72064 21.346 4.10218 21.5 4.5 21.5H19.5C19.8978 21.5 20.2794 21.346 20.5607 21.0719C20.842 20.7978 21 20.4261 21 20.0385V5.42308C21 5.03545 20.842 4.6637 20.5607 4.38961C20.2794 4.11552 19.8978 3.96154 19.5 3.96154ZM6.75 5.42308V6.15385C6.75 6.34766 6.82902 6.53353 6.96967 6.67058C7.11032 6.80762 7.30109 6.88462 7.5 6.88462C7.69891 6.88462 7.88968 6.80762 8.03033 6.67058C8.17098 6.53353 8.25 6.34766 8.25 6.15385V5.42308H15.75V6.15385C15.75 6.34766 15.829 6.53353 15.9697 6.67058C16.1103 6.80762 16.3011 6.88462 16.5 6.88462C16.6989 6.88462 16.8897 6.80762 17.0303 6.67058C17.171 6.53353 17.25 6.34766 17.25 6.15385V5.42308H19.5V8.34615H4.5V5.42308H6.75ZM19.5 20.0385H4.5V9.80769H19.5V20.0385ZM13.5 14.9231C13.5 15.2121 13.412 15.4947 13.2472 15.7351C13.0824 15.9754 12.8481 16.1627 12.574 16.2734C12.2999 16.384 11.9983 16.4129 11.7074 16.3565C11.4164 16.3001 11.1491 16.1609 10.9393 15.9565C10.7296 15.7521 10.5867 15.4917 10.5288 15.2082C10.4709 14.9247 10.5006 14.6308 10.6142 14.3638C10.7277 14.0967 10.92 13.8684 11.1666 13.7079C11.4133 13.5473 11.7033 13.4615 12 13.4615C12.3978 13.4615 12.7794 13.6155 13.0607 13.8896C13.342 14.1637 13.5 14.5355 13.5 14.9231Z" fill="#757575" style="fill:#757575;fill:color(display-p3 0.4588 0.4588 0.4588);fill-opacity:1;"/>
</svg>
