<svg width="24" height="24" viewBox="0 0 24 24" fill="none" xmlns="http://www.w3.org/2000/svg">
<path d="M19.5 3.96154H17.25V3.23077C17.25 3.03696 17.171 2.85108 17.0303 2.71404C16.8897 2.57699 16.6989 2.5 16.5 2.5C16.3011 2.5 16.1103 2.57699 15.9697 2.71404C15.829 2.85108 15.75 3.03696 15.75 3.23077V3.96154H8.25V3.23077C8.25 3.03696 8.17098 2.85108 8.03033 2.71404C7.88968 2.57699 7.69891 2.5 7.5 2.5C7.30109 2.5 7.11032 2.57699 6.96967 2.71404C6.82902 2.85108 6.75 3.03696 6.75 3.23077V3.96154H4.5C4.10218 3.96154 3.72064 4.11552 3.43934 4.38961C3.15804 4.6637 3 5.03545 3 5.42308V20.0385C3 20.4261 3.15804 20.7978 3.43934 21.0719C3.72064 21.346 4.10218 21.5 4.5 21.5H19.5C19.8978 21.5 20.2794 21.346 20.5607 21.0719C20.842 20.7978 21 20.4261 21 20.0385V5.42308C21 5.03545 20.842 4.6637 20.5607 4.38961C20.2794 4.11552 19.8978 3.96154 19.5 3.96154ZM12 16.3846C11.7033 16.3846 11.4133 16.2989 11.1666 16.1383C10.92 15.9777 10.7277 15.7494 10.6142 15.4824C10.5006 15.2153 10.4709 14.9215 10.5288 14.6379C10.5867 14.3544 10.7296 14.094 10.9393 13.8896C11.1491 13.6852 11.4164 13.546 11.7074 13.4896C11.9983 13.4332 12.2999 13.4622 12.574 13.5728C12.8481 13.6834 13.0824 13.8707 13.2472 14.1111C13.412 14.3514 13.5 14.634 13.5 14.9231C13.5 15.3107 13.342 15.6824 13.0607 15.9565C12.7794 16.2306 12.3978 16.3846 12 16.3846ZM19.5 8.34615H4.5V5.42308H6.75V6.15385C6.75 6.34766 6.82902 6.53353 6.96967 6.67058C7.11032 6.80762 7.30109 6.88462 7.5 6.88462C7.69891 6.88462 7.88968 6.80762 8.03033 6.67058C8.17098 6.53353 8.25 6.34766 8.25 6.15385V5.42308H15.75V6.15385C15.75 6.34766 15.829 6.53353 15.9697 6.67058C16.1103 6.80762 16.3011 6.88462 16.5 6.88462C16.6989 6.88462 16.8897 6.80762 17.0303 6.67058C17.171 6.53353 17.25 6.34766 17.25 6.15385V5.42308H19.5V8.34615Z" fill="#757575" style="fill:#757575;fill:color(display-p3 0.4588 0.4588 0.4588);fill-opacity:1;"/>
</svg>
