<svg width="24" height="24" viewBox="0 0 24 24" fill="none" xmlns="http://www.w3.org/2000/svg">
<rect x="4.49023" y="2.98047" width="15.0194" height="18.0387" rx="0.309677" fill="black"/>
<path d="M16.4902 11.3437C16.5757 11.3437 16.645 11.4131 16.645 11.4986L16.645 12.7373C16.645 12.8228 16.5757 12.8921 16.4902 12.8921L7.66437 12.8921C7.57886 12.8921 7.50954 12.8228 7.50954 12.7373L7.50954 11.4986C7.50954 11.4131 7.57886 11.3437 7.66437 11.3437L16.4902 11.3437Z" fill="#74A0F8"/>
<path d="M16.4902 15.832C16.5757 15.832 16.645 15.9014 16.645 15.9869L16.645 17.2256C16.645 17.3111 16.5757 17.3804 16.4902 17.3804L7.66437 17.3804C7.57886 17.3804 7.50954 17.3111 7.50954 17.2256L7.50954 15.9869C7.50954 15.9014 7.57886 15.832 7.66437 15.832L16.4902 15.832Z" fill="white"/>
<circle cx="8.4388" cy="7.62434" r="0.929032" fill="#F2FC9F"/>
<path d="M16.4902 6.85156C16.5757 6.85156 16.645 6.92089 16.645 7.0064L16.645 8.24511C16.645 8.33063 16.5757 8.39995 16.4902 8.39995L10.1418 8.39995C10.0563 8.39995 9.98696 8.33063 9.98696 8.24511L9.98696 7.0064C9.98696 6.92089 10.0563 6.85156 10.1418 6.85156L16.4902 6.85156Z" fill="#74A0F8"/>
</svg>
