<svg width="24" height="24" viewBox="0 0 24 24" fill="none" xmlns="http://www.w3.org/2000/svg">
<path d="M4.48926 4.64561C4.48926 4.47458 4.62791 4.33594 4.79894 4.33594H19.1989C19.37 4.33594 19.5086 4.47458 19.5086 4.64561V16.5682H4.48926V4.64561Z" fill="black"/>
<rect x="3.01807" y="15.0977" width="17.9613" height="4.56774" rx="0.309677" fill="black"/>
<path d="M19.354 16.5664C19.4395 16.5664 19.5088 16.6357 19.5088 16.7212L19.5088 17.96C19.5088 18.0455 19.4395 18.1148 19.354 18.1148L4.64427 18.1148C4.55876 18.1148 4.48943 18.0455 4.48943 17.96L4.48943 16.7212C4.48943 16.6357 4.55876 16.5664 4.64427 16.5664L19.354 16.5664Z" fill="white"/>
<circle cx="9.36691" cy="6.50217" r="0.619355" fill="#F2FC9F"/>
<path d="M15.1344 6.03906C15.1985 6.03906 15.2505 6.09106 15.2505 6.15519V6.85197C15.2505 6.9161 15.1985 6.9681 15.1344 6.96809L10.7215 6.96809C10.6573 6.96809 10.6053 6.9161 10.6053 6.85197V6.15519C10.6053 6.09105 10.6573 6.03906 10.7215 6.03906L15.1344 6.03906Z" fill="#74A0F8"/>
</svg>
