<svg width="24" height="24" viewBox="0 0 24 24" fill="none" xmlns="http://www.w3.org/2000/svg">
<rect x="3.01953" y="12" width="17.9613" height="8.28387" rx="0.309677" fill="black"/>
<circle cx="12.5413" cy="17.5736" r="0.929032" fill="#F2FC9F"/>
<path d="M20.9028 16.8008C20.9883 16.8008 21.0576 16.8701 21.0576 16.9556L21.0576 18.1943C21.0576 18.2798 20.9883 18.3492 20.9028 18.3492L14.2447 18.3492C14.1592 18.3492 14.0899 18.2798 14.0899 18.1943L14.0899 16.9556C14.0899 16.8701 14.1592 16.8008 14.2447 16.8008L20.9028 16.8008Z" fill="white"/>
<circle cx="11.613" cy="14.7858" r="0.929032" transform="rotate(-180 11.613 14.7858)" fill="#F2FC9F"/>
<path d="M3.25152 15.5586C3.166 15.5586 3.09668 15.4893 3.09668 15.4038L3.09668 14.165C3.09668 14.0795 3.166 14.0102 3.25152 14.0102L9.90958 14.0102C9.9951 14.0102 10.0644 14.0795 10.0644 14.165L10.0644 15.4038C10.0644 15.4893 9.9951 15.5586 9.90958 15.5586L3.25152 15.5586Z" fill="#74A0F8"/>
<circle cx="7.31614" cy="7.5471" r="3.83226" fill="black"/>
<circle cx="16.8386" cy="7.5471" r="3.83226" fill="black"/>
</svg>
