<svg width="24" height="24" viewBox="0 0 24 24" fill="none" xmlns="http://www.w3.org/2000/svg">
<circle cx="6.68667" cy="8.35044" r="0.864404" transform="rotate(-90 6.68667 8.35044)" fill="#F2FC9F"/>
<path d="M5.96631 4.13539C5.96631 4.07572 6.01468 4.02734 6.07436 4.02734L7.29893 4.02734C7.35861 4.02734 7.40698 4.07572 7.40698 4.13539L7.40698 6.80064C7.40698 6.86031 7.35861 6.90869 7.29893 6.90869L6.07436 6.90869C6.01468 6.90869 5.96631 6.86031 5.96631 6.80064L5.96631 4.13539Z" fill="#74A0F8"/>
<path d="M9.71191 4.13539C9.71191 4.07572 9.76029 4.02734 9.81996 4.02734L11.0445 4.02734C11.1042 4.02734 11.1526 4.07572 11.1526 4.13539L11.1526 9.10572C11.1526 9.16539 11.1042 9.21377 11.0445 9.21377L9.81996 9.21377C9.76029 9.21377 9.71191 9.16539 9.71191 9.10572L9.71191 4.13539Z" fill="black"/>
<path d="M13.4575 4.13539C13.4575 4.07572 13.5059 4.02734 13.5656 4.02734L14.7901 4.02734C14.8498 4.02734 14.8982 4.07572 14.8982 4.13539L14.8982 9.10572C14.8982 9.16539 14.8498 9.21377 14.7901 9.21377L13.5656 9.21377C13.5059 9.21377 13.4575 9.16539 13.4575 9.10572L13.4575 4.13539Z" fill="black"/>
<path d="M3.95068 10.3663C3.95068 10.2071 4.07969 10.0781 4.23882 10.0781H16.6286C16.7877 10.0781 16.9167 10.2071 16.9167 10.3663V14.112C16.9167 17.6925 14.0142 20.595 10.4337 20.595C6.85323 20.595 3.95068 17.6925 3.95068 14.112V10.3663Z" fill="black"/>
<path d="M19.9775 11.4453C20.0372 11.4453 20.0859 11.494 20.0859 11.5537V16.9561C20.0858 17.0156 20.0371 17.0635 19.9775 17.0635H15.2959C15.2363 17.0635 15.1877 17.0156 15.1875 16.9561V15.7314C15.1875 15.6718 15.2362 15.623 15.2959 15.623H18.6455V12.8857H15.2959C15.2363 12.8857 15.1876 12.8379 15.1875 12.7783V11.5537C15.1875 11.494 15.2362 11.4453 15.2959 11.4453H19.9775Z" fill="black"/>
</svg>
