<svg width="22" height="22" viewBox="0 0 22 22" fill="none" xmlns="http://www.w3.org/2000/svg">
<path d="M13.5 4C13.7761 4 14 4.24108 14 4.53846C14 4.83585 13.7761 5.07692 13.5 5.07692H8.5C8.22386 5.07692 8 4.83585 8 4.53846C8 4.24108 8.22386 4 8.5 4H13.5Z" fill="#3F3F3F" style="fill:#3F3F3F;fill:color(display-p3 0.2471 0.2471 0.2471);fill-opacity:1;"/>
<path d="M16.5 6.07715C16.7761 6.07715 17 6.31982 17 6.61914C17 6.91845 16.7761 7.16113 16.5 7.16113H16V16.917C15.9999 17.2042 15.8944 17.4795 15.707 17.6826C15.5195 17.8859 15.2652 18 15 18H7C6.73478 18 6.48051 17.8859 6.29297 17.6826C6.10562 17.4795 6.00012 17.2042 6 16.917V7.16113H5.5C5.22386 7.16113 5.00001 6.91845 5 6.61914C5 6.31982 5.22386 6.07715 5.5 6.07715H16.5ZM7 7.16113V16.917H15V7.16113H7Z" fill="#3F3F3F" style="fill:#3F3F3F;fill:color(display-p3 0.2471 0.2471 0.2471);fill-opacity:1;"/>
</svg>
